<?xml version="1.0" encoding="UTF-8" standalone="no"?>
<!-- Created with Inkscape (http://www.inkscape.org/) -->
<svg id="svg2" xmlns:rdf="http://www.w3.org/1999/02/22-rdf-syntax-ns#" xmlns="http://www.w3.org/2000/svg" height="1052.4" width="744.09" version="1.1" xmlns:cc="http://creativecommons.org/ns#" xmlns:dc="http://purl.org/dc/elements/1.1/">
 <metadata id="metadata7">
  <rdf:RDF>
   <cc:Work rdf:about="">
    <dc:format>image/svg+xml</dc:format>
    <dc:type rdf:resource="http://purl.org/dc/dcmitype/StillImage"/>
    <dc:title/>
   </cc:Work>
  </rdf:RDF>
 </metadata>
 <g id="layer1">
  <g id="text2985" style="letter-spacing:0px;word-spacing:0px;" font-family="WeblySleek UI Light" font-size="195.74040222px" line-height="125%" font-style="normal" font-weight="normal" fill="#000">
   <path id="path2990" d="m101.8,451.24,0,153.79,97.87,0,0-153.79zm55.924,111.85-13.978,0,0-69.908,13.978,0z"/>
   <path id="path2992" d="m255.77,605.04,0-97.87,13.978,0,0,97.87,41.946,0,0-139.82-97.87,0,0,139.82z"/>
   <path id="path2994" d="m325.83,451.24,0,153.79,97.87,0,0-41.946-55.924,0,0-13.978,55.924,0,0-97.87zm55.924,55.924-13.978,0,0-13.984,13.978,0z"/>
   <path id="path2996" d="m437.85,451.24,0,153.79,97.87,0,0-153.79zm55.924,111.85-13.978,0,0-69.908,13.978,0z"/>
   <path id="path2998" d="m549.87,451.24,0,97.87,55.924,0,0,13.978-55.924,0,0,41.946,97.87,0,0-97.87-55.924,0,0-13.984,55.924,0,0-41.94z"/>
  </g>
 </g>
</svg>
